<?xml version="1.0" standalone="no"?>
<!DOCTYPE svg PUBLIC "-//W3C//DTD SVG 20010904//EN"
 "http://www.w3.org/TR/2001/REC-SVG-20010904/DTD/svg10.dtd">
<svg version="1.0" xmlns="http://www.w3.org/2000/svg"
 width="730.000000pt" height="730.000000pt" viewBox="0 0 730.000000 730.000000"
 preserveAspectRatio="xMidYMid meet">
<metadata>
Created by potrace 1.14, written by Peter Selinger 2001-2017
</metadata>
<g transform="translate(0.000000,730.000000) scale(0.100000,-0.100000)"
fill="#000000" stroke="none">
<path d="M3500 7174 c-391 -26 -687 -83 -1015 -194 -697 -238 -1300 -683
-1737 -1281 -307 -420 -522 -929 -612 -1444 -37 -213 -49 -359 -49 -595 0
-236 12 -382 49 -595 105 -601 372 -1171 772 -1650 42 -49 139 -153 216 -230
587 -583 1347 -939 2191 -1026 154 -16 536 -16 690 0 847 87 1606 444 2196
1031 583 580 935 1317 1020 2135 16 154 16 516 0 670 -64 618 -291 1213 -649
1704 -336 460 -785 842 -1292 1096 -376 189 -837 322 -1265 364 -113 11 -432
21 -515 15z m898 -1706 c18 -18 17 -481 -1 -496 -9 -8 -277 -12 -898 -14 -861
-3 -885 -4 -924 -23 -52 -26 -84 -52 -115 -95 -22 -31 -25 -48 -28 -141 -4
-102 -3 -108 25 -157 39 -69 80 -94 183 -115 73 -14 173 -17 710 -20 618 -3
626 -4 695 -26 39 -13 88 -32 110 -42 22 -10 45 -19 52 -19 6 0 18 -6 25 -13
7 -7 34 -28 59 -46 49 -35 149 -151 149 -173 0 -8 6 -22 14 -33 84 -121 111
-557 45 -750 -63 -184 -161 -306 -299 -371 -111 -53 -139 -64 -166 -64 -16 0
-54 -8 -84 -17 -49 -15 -148 -17 -976 -20 -787 -3 -922 -2 -933 10 -8 11 -11
82 -9 258 l3 243 25 7 c14 4 420 7 902 8 l876 1 51 25 c65 33 97 76 123 166
l20 73 -22 80 c-19 70 -28 87 -66 122 -75 70 -117 74 -741 75 -617 0 -726 6
-837 43 -44 14 -84 30 -90 35 -6 5 -22 12 -36 16 -33 10 -127 85 -169 135 -46
55 -52 65 -105 185 -41 91 -50 157 -50 365 -1 243 7 285 84 453 12 26 30 58
40 70 11 12 32 38 49 58 33 39 151 122 197 139 16 6 43 17 59 24 27 13 58 19
225 46 25 4 443 8 931 9 676 1 888 -2 897 -11z m600 -525 c28 -31 52 -61 52
-67 0 -7 17 -25 38 -41 47 -35 79 -88 88 -144 4 -23 11 -41 17 -41 21 0 193
-73 212 -90 11 -10 38 -27 60 -38 51 -26 163 -140 207 -212 32 -51 56 -112 90
-230 17 -57 15 -303 -2 -385 -18 -84 -18 -356 -1 -425 19 -77 39 -135 73 -210
17 -36 32 -81 35 -100 3 -19 13 -48 21 -65 9 -16 19 -46 23 -65 5 -19 15 -62
23 -95 44 -178 59 -404 33 -526 -8 -41 -18 -95 -21 -122 -3 -26 -12 -61 -21
-77 -8 -16 -15 -40 -15 -53 0 -36 -106 -251 -143 -292 -28 -30 -97 -126 -97
-134 0 -4 -10 -13 -23 -18 -13 -6 -58 -42 -101 -79 -42 -38 -101 -81 -129 -95
-229 -118 -344 -162 -464 -179 -82 -12 -146 -25 -159 -32 -5 -3 -202 -11 -439
-18 -377 -10 -457 -10 -650 4 -214 16 -282 24 -393 45 -100 19 -270 93 -324
140 -20 17 -40 31 -46 31 -22 0 -150 151 -179 212 -45 92 -73 188 -73 248 0
29 -5 81 -12 116 -10 55 -14 64 -33 64 -27 0 -132 101 -141 135 -3 13 -17 31
-30 39 -13 9 -43 47 -68 84 -24 37 -51 74 -60 82 -14 10 -14 15 -4 21 7 5 465
9 1018 9 986 0 1006 0 1043 20 20 11 52 20 69 20 18 0 47 9 63 20 17 11 35 20
42 20 16 0 92 52 133 90 18 16 35 30 38 30 11 0 85 86 105 124 58 104 77 142
77 157 0 9 9 36 20 60 11 24 20 65 20 90 0 26 4 69 10 97 22 119 0 451 -34
517 -9 17 -16 38 -16 48 0 34 -94 182 -193 307 -55 69 -105 130 -111 135 -6 6
-23 28 -38 50 -23 34 -151 162 -214 215 -38 31 -85 60 -109 66 -14 3 -25 10
-25 14 0 14 77 20 286 20 192 0 216 2 259 21 73 32 75 42 75 361 l1 273 42
-49 c23 -26 66 -73 95 -103z m-2538 -1413 c0 -5 14 -17 32 -26 26 -13 29 -18
16 -25 -21 -12 -76 8 -88 31 -14 27 -13 30 15 30 14 0 25 -4 25 -10z"/>
</g>
</svg>
